<svg height="448pt" viewBox="0 -12 448 448" width="448pt" xmlns="http://www.w3.org/2000/svg"><path d="m56 424.011719h272c33.496094 0 56-19.289063 56-48v-8c0-4.417969-3.582031-8-8-8h-69.558594c18.859375-13.242188 31.785156-33.34375 36-56h33.558594c39.746094-.046875 71.953125-32.253907 72-72v-16c-.046875-39.746094-32.253906-71.953125-72-72h-32v-24c0-4.417969-3.582031-8-8-8h-288c-4.417969 0-8 3.582031-8 8v168c.03125 28.699219 14.066406 55.574219 37.601562 72h-69.601562c-4.417969 0-8 3.582031-8 8v8c0 28.710937 22.503906 48 56 48zm288-216h32c4.417969 0 8 3.582031 8 8v16c0 4.417969-3.582031 8-8 8h-32zm0 48h32c13.253906 0 24-10.746094 24-24v-16c0-13.253907-10.746094-24-24-24h-32v-32h32c30.914062.035156 55.964844 25.085937 56 56v16c-.035156 30.914062-25.085938 55.964843-56 56h-32zm-288 32v-120h64v-16h-64v-24h200v64h-32c-4.417969 0-8 3.582031-8 8v80c-.003906 3.269531 1.988281 6.214843 5.023438 7.433593l40 16c1.914062.753907 4.039062.753907 5.953124 0l40-16c3.035157-1.21875 5.027344-4.164062 5.023438-7.433593v-80c0-4.417969-3.582031-8-8-8h-32v-64h56v160c-.046875 39.746093-32.253906 71.953125-72 72h-128c-39.746094-.046875-71.953125-32.253907-72-72zm240-80v66.582031l-32 12.800781-32-12.800781v-66.582031zm-168 168h240c0 23.589843-20.664062 32-40 32h-272c-19.335938 0-40-8.410157-40-32zm0 0"/><path d="m128 72.011719c0 4.417969 3.582031 8 8 8s8-3.582031 8-8c.109375-9.753907-3.269531-19.222657-9.527344-26.703125-4.269531-4.738282-6.582031-10.921875-6.472656-17.296875-.175781-5.570313 1.628906-11.023438 5.097656-15.382813 2.546875-3.617187 1.683594-8.617187-1.933594-11.164062-3.617187-2.550782-8.613281-1.6875-11.164062 1.929687-5.359375 7.074219-8.179688 15.746094-8 24.617188-.109375 9.753906 3.269531 19.222656 9.527344 26.703125 4.269531 4.738281 6.582031 10.917968 6.472656 17.296875zm0 0"/><path d="m184 72.011719c0 4.417969 3.582031 8 8 8s8-3.582031 8-8c.109375-9.753907-3.269531-19.222657-9.527344-26.703125-4.269531-4.738282-6.582031-10.921875-6.472656-17.296875-.175781-5.570313 1.628906-11.023438 5.097656-15.382813 2.546875-3.617187 1.683594-8.617187-1.933594-11.164062-3.617187-2.550782-8.613281-1.6875-11.164062 1.929687-5.359375 7.074219-8.179688 15.746094-8 24.617188-.109375 9.753906 3.269531 19.222656 9.527344 26.703125 4.269531 4.738281 6.582031 10.917968 6.472656 17.296875zm0 0"/><path d="m240 72.011719c0 4.417969 3.582031 8 8 8s8-3.582031 8-8c.109375-9.753907-3.269531-19.222657-9.527344-26.703125-4.269531-4.738282-6.582031-10.921875-6.472656-17.296875-.175781-5.570313 1.628906-11.023438 5.097656-15.382813 2.546875-3.617187 1.683594-8.617187-1.933594-11.164062-3.617187-2.550782-8.613281-1.6875-11.164062 1.929687-5.359375 7.074219-8.179688 15.746094-8 24.617188-.109375 9.753906 3.269531 19.222656 9.527344 26.703125 4.269531 4.738281 6.582031 10.917968 6.472656 17.296875zm0 0"/><path d="m136 152.011719h16v16h-16zm0 0"/></svg>